<svg width="32" height="32" viewBox="0 0 32 32" fill="none" xmlns="http://www.w3.org/2000/svg">
<path d="M5.3335 8.23529L26.6668 8.2353M21.3335 28H10.6668C9.19407 28 8.00016 26.7359 8.00016 25.1765V9.64706C8.00016 8.86736 8.59712 8.23529 9.3335 8.23529H22.6668C23.4032 8.23529 24.0002 8.86736 24.0002 9.64706V25.1765C24.0002 26.7359 22.8063 28 21.3335 28ZM13.3335 8.23529H18.6668C19.4032 8.23529 20.0002 7.60323 20.0002 6.82353V5.41176C20.0002 4.63207 19.4032 4 18.6668 4H13.3335C12.5971 4 12.0002 4.63207 12.0002 5.41176V6.82353C12.0002 7.60323 12.5971 8.23529 13.3335 8.23529Z" stroke="white" stroke-width="2" stroke-linecap="round"/>
</svg>
